<svg width="60" height="60" viewBox="0 0 60 60" fill="none" xmlns="http://www.w3.org/2000/svg">
<path d="M8.73955 0.585486C9.16936 1.39053 9.65888 2.39073 10.2081 3.5861C10.7812 4.75707 11.3662 6.03781 11.9632 7.42834C12.584 8.79447 13.1929 10.1972 13.7899 11.6365C14.3868 13.0758 14.948 14.4298 15.4733 15.6983C15.9986 14.4298 16.5598 13.0758 17.1567 11.6365C17.7537 10.1972 18.3507 8.79447 18.9476 7.42834C19.5685 6.03781 20.1535 4.75707 20.7027 3.5861C21.2758 2.39073 21.7772 1.39053 22.2071 0.585486H27.2932C27.532 2.26875 27.7469 4.15938 27.9379 6.25737C28.1528 8.33096 28.3319 10.5021 28.4752 12.7709C28.6423 15.0152 28.7856 17.2718 28.905 19.5406C29.0483 21.8093 29.1677 23.9439 29.2632 25.9443H23.8189C23.7472 23.4804 23.6517 20.7969 23.5323 17.8939C23.4129 14.9909 23.2338 12.0634 22.9951 9.11161C22.5652 10.1362 22.0877 11.2706 21.5623 12.5147C21.037 13.7589 20.5117 15.003 19.9864 16.2472C19.4849 17.4914 18.9954 18.6867 18.5178 19.8333C18.0403 20.9555 17.6343 21.9191 17.3 22.7241H13.3959C13.0616 21.9191 12.6556 20.9555 12.1781 19.8333C11.7005 18.6867 11.199 17.4914 10.6737 16.2472C10.1723 15.003 9.65888 13.7589 9.13355 12.5147C8.60822 11.2706 8.13065 10.1362 7.70083 9.11161C7.46205 12.0634 7.28296 14.9909 7.16357 17.8939C7.04417 20.7969 6.94866 23.4804 6.87702 25.9443H1.43271C1.52823 23.9439 1.63568 21.8093 1.75507 19.5406C1.89835 17.2718 2.04162 15.0152 2.18489 12.7709C2.35204 10.5021 2.53113 8.33096 2.72216 6.25737C2.93706 4.15938 3.16391 2.26875 3.40269 0.585486H8.73955Z" fill="white"/>
<path d="M39.5833 13.2466C39.5833 14.4908 39.7265 15.6129 40.0131 16.6131C40.3235 17.6133 40.7533 18.4794 41.3025 19.2112C41.8756 19.9187 42.5681 20.4676 43.38 20.8579C44.1918 21.2482 45.1231 21.4434 46.1738 21.4434C47.2005 21.4434 48.1199 21.2482 48.9317 20.8579C49.7675 20.4676 50.46 19.9187 51.0092 19.2112C51.5822 18.4794 52.0121 17.6133 52.2986 16.6131C52.609 15.6129 52.7642 14.4908 52.7642 13.2466C52.7642 12.0024 52.609 10.8803 52.2986 9.88006C52.0121 8.85546 51.5822 7.98943 51.0092 7.28197C50.46 6.55011 49.7675 5.98902 48.9317 5.5987C48.1199 5.20838 47.2005 5.01321 46.1738 5.01321C45.1231 5.01321 44.1918 5.22057 43.38 5.63529C42.5681 6.02562 41.8756 6.58671 41.3025 7.31856C40.7533 8.02602 40.3235 8.89205 40.0131 9.91665C39.7265 10.9169 39.5833 12.0268 39.5833 13.2466ZM58.5309 13.2466C58.5309 15.4178 58.2085 17.3328 57.5638 18.9917C56.943 20.6261 56.0834 22.0045 54.9849 23.1267C53.8865 24.2244 52.5732 25.0539 51.045 25.615C49.5406 26.1761 47.9169 26.4566 46.1738 26.4566C44.4784 26.4566 42.8785 26.1761 41.3742 25.615C39.8698 25.0539 38.5565 24.2244 37.4342 23.1267C36.3119 22.0045 35.4284 20.6261 34.7837 18.9917C34.139 17.3328 33.8166 15.4178 33.8166 13.2466C33.8166 11.0754 34.1509 9.1726 34.8195 7.53812C35.4881 5.87924 36.3836 4.48872 37.5058 3.36654C38.652 2.24436 39.9653 1.40272 41.4458 0.841635C42.9502 0.280545 44.5261 0 46.1738 0C47.8691 0 49.469 0.280545 50.9733 0.841635C52.4777 1.40272 53.791 2.24436 54.9133 3.36654C56.0356 4.48872 56.9191 5.87924 57.5638 7.53812C58.2085 9.1726 58.5309 11.0754 58.5309 13.2466Z" fill="white"/>
<path d="M18.8044 36.8368C19.0909 37.837 19.4013 38.9713 19.7356 40.2399C20.0938 41.484 20.4639 42.777 20.846 44.1187C21.2519 45.4605 21.6579 46.8022 22.0638 48.1439C22.4697 49.4857 22.8637 50.7298 23.2458 51.8764C23.5562 50.6322 23.8666 49.2783 24.177 47.8146C24.5113 46.3509 24.8218 44.8384 25.1083 43.2771C25.3948 41.7158 25.6694 40.1667 25.9321 38.6298C26.2187 37.0685 26.4813 35.5682 26.7201 34.1289H32.5226C31.6868 38.3736 30.7198 42.6794 29.6213 47.0461C28.5468 51.4129 27.3768 55.5601 26.1112 59.4877H20.9893C20.1535 57.1458 19.3416 54.694 18.5536 52.1325C17.7656 49.5467 16.9896 46.9608 16.2255 44.3749C15.4614 46.9608 14.6973 49.5467 13.9331 52.1325C13.169 54.694 12.3691 57.1458 11.5333 59.4877H6.41139C5.14583 55.5601 3.96384 51.4129 2.86543 47.0461C1.79089 42.6794 0.83575 38.3736 0 34.1289H6.05321C6.292 35.5682 6.55466 37.0685 6.84121 38.6298C7.12775 40.1667 7.42623 41.7158 7.73665 43.2771C8.04707 44.8384 8.3575 46.3509 8.66792 47.8146C9.00222 49.2783 9.33652 50.6322 9.67082 51.8764C10.1006 50.681 10.5185 49.4125 10.9244 48.0707C11.3304 46.729 11.7244 45.3873 12.1064 44.0455C12.4885 42.7038 12.8347 41.4109 13.1451 40.1667C13.4794 38.9225 13.7779 37.8126 14.0406 36.8368H18.8044Z" fill="white"/>
<path d="M41.0524 46.79C41.0524 48.0342 41.1956 49.1563 41.4822 50.1565C41.7926 51.1567 42.2224 52.0228 42.7716 52.7546C43.3447 53.4621 44.0372 54.011 44.8491 54.4013C45.6609 54.7916 46.5922 54.9868 47.6428 54.9868C48.6696 54.9868 49.589 54.7916 50.4008 54.4013C51.2366 54.011 51.929 53.4621 52.4783 52.7546C53.0513 52.0228 53.4812 51.1567 53.7677 50.1565C54.0781 49.1563 54.2333 48.0342 54.2333 46.79C54.2333 45.5458 54.0781 44.4237 53.7677 43.4235C53.4812 42.3989 53.0513 41.5328 52.4783 40.8254C51.929 40.0935 51.2366 39.5324 50.4008 39.1421C49.589 38.7518 48.6696 38.5566 47.6428 38.5566C46.5922 38.5566 45.6609 38.764 44.8491 39.1787C44.0372 39.569 43.3447 40.1301 42.7716 40.862C42.2224 41.5694 41.7926 42.4355 41.4822 43.46C41.1956 44.4603 41.0524 45.5702 41.0524 46.79ZM60 46.79C60 48.9612 59.6776 50.8762 59.0329 52.5351C58.4121 54.1695 57.5524 55.5479 56.454 56.6701C55.3556 57.7678 54.0423 58.5973 52.5141 59.1584C51.0097 59.7195 49.386 60 47.6428 60C45.9475 60 44.3476 59.7195 42.8433 59.1584C41.3389 58.5973 40.0256 57.7678 38.9033 56.6701C37.781 55.5479 36.8975 54.1695 36.2528 52.5351C35.6081 50.8762 35.2857 48.9612 35.2857 46.79C35.2857 44.6188 35.62 42.716 36.2886 41.0815C36.9572 39.4226 37.8526 38.0321 38.9749 36.9099C40.1211 35.7878 41.4344 34.9461 42.9149 34.385C44.4192 33.8239 45.9952 33.5434 47.6428 33.5434C49.3382 33.5434 50.9381 33.8239 52.4424 34.385C53.9468 34.9461 55.2601 35.7878 56.3824 36.9099C57.5047 38.0321 58.3882 39.4226 59.0329 41.0815C59.6776 42.716 60 44.6188 60 46.79Z" fill="white"/>
</svg>
