<svg width="32" height="32" viewBox="0 0 32 32" fill="none" xmlns="http://www.w3.org/2000/svg">
<path d="M7.71943 4.04376C8.10318 3.98626 8.4913 4.00188 8.87818 4.00001C13.6057 4.00001 18.3338 4.00001 23.0619 4.00001C23.5007 4.00251 23.9438 3.98126 24.3782 4.05938C25.3638 4.22126 26.2832 4.74313 26.9351 5.49876C27.6101 6.27001 27.9982 7.28626 27.9994 8.31188C28.0007 13.4169 27.9994 18.5219 28.0001 23.6269C28.0019 24.1338 27.9188 24.6413 27.7463 25.1181C27.3232 26.3106 26.3532 27.2944 25.1644 27.7294C24.6738 27.9131 24.1501 28.0025 23.6269 28C18.5232 27.9994 13.4194 28.0006 8.31505 27.9994C7.2738 27.9988 6.24193 27.5994 5.4663 26.9056C4.55318 26.1044 3.9988 24.9063 4.00068 23.6894C3.99943 18.8756 4.00068 14.0619 4.00005 9.24813C4.00568 8.56188 3.95443 7.86001 4.1538 7.19251C4.5863 5.56313 6.04693 4.26813 7.71943 4.04376ZM6.18255 7.42188C5.91693 8.02438 6.02068 8.69563 6.00068 9.33313C12.6669 9.33376 19.3332 9.33376 25.9994 9.33313C25.9963 8.95001 26.0088 8.56626 25.9926 8.18376C25.9576 7.50376 25.6032 6.84813 25.0507 6.44938C24.6432 6.14501 24.1313 5.99563 23.6251 6.00001C18.5207 6.00063 13.4163 5.99813 8.31193 6.00126C7.40255 5.99563 6.52318 6.57751 6.18255 7.42188ZM6.00068 11.3331C5.9988 15.3894 6.0013 19.4456 5.99943 23.5025C5.99505 23.8025 6.0188 24.1063 6.11443 24.3931C6.40068 25.3306 7.3363 26.0081 8.31505 25.9988C13.3544 26.0025 18.3938 25.9981 23.4332 26.0006C23.7738 26.0075 24.1194 25.985 24.4426 25.8688C25.3557 25.5675 26.0069 24.6463 25.9982 23.6863C26.0019 19.5681 26.0001 15.4506 25.9994 11.3331C19.3332 11.3338 12.6669 11.3338 6.00068 11.3331Z" fill="#888A88"/>
<path d="M9.70676 14.6994C10.1736 14.5906 10.6899 14.7581 11.0018 15.1213C11.3405 15.4994 11.4286 16.0769 11.2186 16.5388C10.9918 17.0725 10.388 17.4106 9.81363 17.3188C9.19551 17.2444 8.68488 16.6838 8.66863 16.0613C8.62676 15.4338 9.09238 14.8256 9.70676 14.6994Z" fill="#888A88"/>
<path d="M15.702 14.7006C16.0988 14.6081 16.5351 14.71 16.8476 14.9719C17.1857 15.2462 17.372 15.6944 17.3257 16.1275C17.2876 16.5825 16.9926 17.0025 16.5807 17.1987C16.167 17.4044 15.647 17.3694 15.2638 17.1106C14.8413 16.8362 14.6026 16.31 14.6807 15.8112C14.7495 15.2775 15.1757 14.8137 15.702 14.7006Z" fill="#888A88"/>
<path d="M21.703 14.7C22.1561 14.5932 22.6574 14.7463 22.9724 15.0888C23.3211 15.4532 23.4293 16.0232 23.2386 16.49C23.0268 17.0513 22.4024 17.4157 21.8093 17.3188C21.193 17.2419 20.6843 16.6819 20.6686 16.06C20.6268 15.435 21.0905 14.8282 21.703 14.7Z" fill="#888A88"/>
<path d="M15.7736 19.3469C16.4086 19.2712 17.0711 19.5219 17.4924 20.0037C18.0874 20.6506 18.1655 21.6987 17.6724 22.4262C17.213 23.1544 16.2524 23.5081 15.4305 23.2487C14.8443 23.0781 14.3505 22.6212 14.1343 22.0506C13.918 21.4969 13.968 20.8462 14.2686 20.3331C14.578 19.7919 15.153 19.4131 15.7736 19.3469Z" fill="#888A88"/>
<path d="M9.71431 20.0313C10.0874 19.9482 10.4943 20.035 10.7993 20.2669C11.1762 20.5444 11.3843 21.0313 11.3218 21.4957C11.2706 21.9507 10.9637 22.3669 10.5431 22.5494C10.1174 22.745 9.58931 22.69 9.21369 22.4082C8.81431 22.1238 8.60119 21.6057 8.68431 21.1219C8.76056 20.5925 9.19056 20.1394 9.71431 20.0313Z" fill="#888A88"/>
</svg>
