<svg width="630" height="281" viewBox="0 0 630 281" fill="none" xmlns="http://www.w3.org/2000/svg">
<path d="M0 250H630" stroke="black" stroke-width="2"/>
<path d="M30 190H630" stroke="#6B6B6B"/>
<path d="M30 130H630" stroke="#6B6B6B"/>
<path d="M30 70H630" stroke="#6B6B6B"/>
<path d="M30 10H630" stroke="#6B6B6B"/>
<path d="M32 105L132.5 208L247.5 122H376L495 27H599.5" stroke="#63DB85" stroke-width="2"/>
<circle cx="494" cy="27" r="5" fill="#63DB85"/>
<path d="M32 188.74L134 149.5L246 200.5L375.5 143L496.5 105L600 146.42" stroke="#82ABE8" stroke-width="2"/>
<path d="M32 80.8735L134 49H245.015L377 87L495.825 175H600" stroke="#B399E4" stroke-width="2"/>
<path d="M5.39648 17.1758C4.07227 17.1758 3.04688 16.8564 2.32031 16.2178C1.59375 15.5732 1.23047 14.668 1.23047 13.502H2.76855C2.76855 14.2402 2.99707 14.8145 3.4541 15.2246C3.91113 15.6289 4.56445 15.8311 5.41406 15.8311C6.24609 15.8311 6.89062 15.582 7.34766 15.084C7.80469 14.5859 8.0332 13.8828 8.0332 12.9746C8.0332 12.1133 7.80469 11.4482 7.34766 10.9795C6.89062 10.5049 6.24316 10.2676 5.40527 10.2676C4.52051 10.2676 3.68848 10.5195 2.90918 11.0234L2.88281 9.85449C3.38086 9.49707 3.87305 9.25684 4.35938 9.13379C4.85156 9.01074 5.34668 8.94922 5.84473 8.94922C7.02246 8.94922 7.93359 9.30078 8.57812 10.0039C9.22266 10.7012 9.54492 11.6914 9.54492 12.9746C9.54492 13.8652 9.38086 14.624 9.05273 15.251C8.73047 15.8779 8.25879 16.3555 7.6377 16.6836C7.02246 17.0117 6.27539 17.1758 5.39648 17.1758ZM1.99512 11.0234L2.16211 4.51953H3.69141L3.51562 10.083L2.90918 11.0234H1.99512ZM2.93555 5.87305L2.77734 4.51953H8.75391V5.87305H2.93555ZM15.8203 17.1758C13.0312 17.1758 11.6367 15.0664 11.6367 10.8477C11.6367 6.51172 13.0312 4.34375 15.8203 4.34375C18.6094 4.34375 20.0039 6.51172 20.0039 10.8477C20.0039 15.0664 18.6094 17.1758 15.8203 17.1758ZM15.8203 12.0166C15.4688 12.0166 15.1846 11.9111 14.9678 11.7002C14.7568 11.4834 14.6514 11.1992 14.6514 10.8477C14.6514 10.4961 14.7568 10.2148 14.9678 10.0039C15.1846 9.78711 15.4688 9.67871 15.8203 9.67871C16.1719 9.67871 16.4531 9.78711 16.6641 10.0039C16.8809 10.2148 16.9893 10.4961 16.9893 10.8477C16.9893 11.1992 16.8809 11.4834 16.6641 11.7002C16.4531 11.9111 16.1719 12.0166 15.8203 12.0166ZM15.8203 15.8311C17.584 15.8311 18.4658 14.1699 18.4658 10.8477C18.4658 7.4082 17.584 5.68848 15.8203 5.68848C14.0566 5.68848 13.1748 7.4082 13.1748 10.8477C13.1748 14.1699 14.0566 15.8311 15.8203 15.8311Z" fill="black"/>
<path d="M0.720703 74.1787L2.4082 65.2227H3.94629L2.24121 74.1787H0.720703ZM0.711914 74.1787L1.7666 72.8252H7.11914V74.1787H0.711914ZM8.26172 74.1787V72.8252H9.77344V74.1787H8.26172ZM6.94336 77V64.5195H8.4375V77H6.94336ZM15.8203 77.1758C13.0312 77.1758 11.6367 75.0664 11.6367 70.8477C11.6367 66.5117 13.0312 64.3438 15.8203 64.3438C18.6094 64.3438 20.0039 66.5117 20.0039 70.8477C20.0039 75.0664 18.6094 77.1758 15.8203 77.1758ZM15.8203 72.0166C15.4688 72.0166 15.1846 71.9111 14.9678 71.7002C14.7568 71.4834 14.6514 71.1992 14.6514 70.8477C14.6514 70.4961 14.7568 70.2148 14.9678 70.0039C15.1846 69.7871 15.4688 69.6787 15.8203 69.6787C16.1719 69.6787 16.4531 69.7871 16.6641 70.0039C16.8809 70.2148 16.9893 70.4961 16.9893 70.8477C16.9893 71.1992 16.8809 71.4834 16.6641 71.7002C16.4531 71.9111 16.1719 72.0166 15.8203 72.0166ZM15.8203 75.8311C17.584 75.8311 18.4658 74.1699 18.4658 70.8477C18.4658 67.4082 17.584 65.6885 15.8203 65.6885C14.0566 65.6885 13.1748 67.4082 13.1748 70.8477C13.1748 74.1699 14.0566 75.8311 15.8203 75.8311Z" fill="black"/>
<path d="M4.51758 137.176C3.88477 137.176 3.30762 137.138 2.78613 137.062C2.27051 136.985 1.80469 136.883 1.38867 136.754L1.57324 135.383C1.9248 135.477 2.32031 135.576 2.75977 135.682C3.20508 135.781 3.76758 135.831 4.44727 135.831C5.44336 135.831 6.2168 135.638 6.76758 135.251C7.31836 134.858 7.59375 134.308 7.59375 133.599C7.59375 133.101 7.43555 132.673 7.11914 132.315C6.80273 131.952 6.34863 131.677 5.75684 131.489C5.16504 131.296 4.45312 131.199 3.62109 131.199H3.32227L3.1377 130.18L5.61621 130.399C6.65918 130.476 7.5 130.807 8.13867 131.393C8.7832 131.979 9.10547 132.755 9.10547 133.722C9.10547 134.817 8.7041 135.667 7.90137 136.271C7.10449 136.874 5.97656 137.176 4.51758 137.176ZM3.32227 131.199L3.1377 130.18C4.06934 130.051 4.8457 129.857 5.4668 129.6C6.08789 129.342 6.55371 129.028 6.86426 128.659C7.1748 128.284 7.33008 127.874 7.33008 127.429C7.33008 126.878 7.14551 126.45 6.77637 126.146C6.40723 125.841 5.88574 125.688 5.21191 125.688C4.70215 125.688 4.18945 125.797 3.67383 126.014C3.1582 126.23 2.66016 126.564 2.17969 127.016L1.16895 126.022C1.70215 125.437 2.31445 125.012 3.00586 124.748C3.69727 124.479 4.48535 124.344 5.37012 124.344C6.47754 124.344 7.33301 124.587 7.93652 125.073C8.54004 125.554 8.8418 126.242 8.8418 127.139C8.8418 127.912 8.5752 128.58 8.04199 129.143C7.51465 129.699 6.82031 130.083 5.95898 130.294V131.173L3.32227 131.199ZM15.8203 137.176C13.0312 137.176 11.6367 135.066 11.6367 130.848C11.6367 126.512 13.0312 124.344 15.8203 124.344C18.6094 124.344 20.0039 126.512 20.0039 130.848C20.0039 135.066 18.6094 137.176 15.8203 137.176ZM15.8203 132.017C15.4688 132.017 15.1846 131.911 14.9678 131.7C14.7568 131.483 14.6514 131.199 14.6514 130.848C14.6514 130.496 14.7568 130.215 14.9678 130.004C15.1846 129.787 15.4688 129.679 15.8203 129.679C16.1719 129.679 16.4531 129.787 16.6641 130.004C16.8809 130.215 16.9893 130.496 16.9893 130.848C16.9893 131.199 16.8809 131.483 16.6641 131.7C16.4531 131.911 16.1719 132.017 15.8203 132.017ZM15.8203 135.831C17.584 135.831 18.4658 134.17 18.4658 130.848C18.4658 127.408 17.584 125.688 15.8203 125.688C14.0566 125.688 13.1748 127.408 13.1748 130.848C13.1748 134.17 14.0566 135.831 15.8203 135.831Z" fill="black"/>
<path d="M1.40625 197V195.277C3.39844 194.176 4.88672 193.03 5.87109 191.841C6.85547 190.646 7.34766 189.409 7.34766 188.132C7.34766 187.335 7.14551 186.729 6.74121 186.312C6.33691 185.896 5.74219 185.688 4.95703 185.688C4.43555 185.688 3.91113 185.814 3.38379 186.066C2.85645 186.318 2.3877 186.67 1.97754 187.121L1.00195 186.154C1.42969 185.604 1.99219 185.164 2.68945 184.836C3.39258 184.508 4.16016 184.344 4.99219 184.344C6.26953 184.344 7.2334 184.663 7.88379 185.302C8.53418 185.94 8.85938 186.884 8.85938 188.132C8.85938 189.485 8.41406 190.769 7.52344 191.981C6.63281 193.188 5.2998 194.334 3.52441 195.418V197H1.40625ZM1.93359 197V195.62H9.38672V197H1.93359ZM15.8203 197.176C13.0312 197.176 11.6367 195.066 11.6367 190.848C11.6367 186.512 13.0312 184.344 15.8203 184.344C18.6094 184.344 20.0039 186.512 20.0039 190.848C20.0039 195.066 18.6094 197.176 15.8203 197.176ZM15.8203 192.017C15.4688 192.017 15.1846 191.911 14.9678 191.7C14.7568 191.483 14.6514 191.199 14.6514 190.848C14.6514 190.496 14.7568 190.215 14.9678 190.004C15.1846 189.787 15.4688 189.679 15.8203 189.679C16.1719 189.679 16.4531 189.787 16.6641 190.004C16.8809 190.215 16.9893 190.496 16.9893 190.848C16.9893 191.199 16.8809 191.483 16.6641 191.7C16.4531 191.911 16.1719 192.017 15.8203 192.017ZM15.8203 195.831C17.584 195.831 18.4658 194.17 18.4658 190.848C18.4658 187.408 17.584 185.688 15.8203 185.688C14.0566 185.688 13.1748 187.408 13.1748 190.848C13.1748 194.17 14.0566 195.831 15.8203 195.831Z" fill="black"/>
<path d="M490.848 277V275.62H493.739C494.577 275.62 495.228 275.43 495.69 275.049C496.153 274.662 496.385 274.12 496.385 273.423C496.385 272.685 496.147 272.113 495.673 271.709C495.204 271.299 494.536 271.094 493.669 271.094H490.883L490.672 270.435H494.021C495.257 270.435 496.212 270.71 496.886 271.261C497.56 271.812 497.896 272.591 497.896 273.599C497.896 274.683 497.562 275.521 496.895 276.112C496.232 276.704 495.292 277 494.073 277H490.848ZM489.477 277V264.52H490.971V277H489.477ZM490.426 270.76V270.074H494.126V270.76H490.426ZM490.848 270.364V269.723H493.15C493.895 269.723 494.472 269.553 494.882 269.213C495.298 268.873 495.506 268.393 495.506 267.771C495.506 267.168 495.295 266.705 494.873 266.383C494.451 266.061 493.856 265.899 493.089 265.899H490.883L490.672 264.52H493.115C494.357 264.52 495.318 264.792 495.998 265.337C496.678 265.882 497.018 266.655 497.018 267.657C497.018 268.519 496.713 269.187 496.104 269.661C495.494 270.13 494.63 270.364 493.511 270.364H490.848ZM503.064 277V267.684H504.576V277H503.064ZM499.408 269.063V267.684H508.232V269.063H499.408Z" fill="black"/>
<path d="M383.752 277V264.52H385.246V277H383.752ZM377.301 277V264.52H378.795V277H377.301ZM377.67 265.899V264.52H384.921V265.899H377.67ZM394.026 277V267.684H395.547V277H394.026ZM388.094 277V267.684H389.614V277H388.094ZM388.56 272.983V271.7H395.257V272.983H388.56Z" fill="black"/>
<path d="M266.848 277V275.62H269.739C270.577 275.62 271.228 275.43 271.69 275.049C272.153 274.662 272.385 274.12 272.385 273.423C272.385 272.685 272.147 272.113 271.673 271.709C271.204 271.299 270.536 271.094 269.669 271.094H266.883L266.672 270.435H270.021C271.257 270.435 272.212 270.71 272.886 271.261C273.56 271.812 273.896 272.591 273.896 273.599C273.896 274.683 273.562 275.521 272.895 276.112C272.232 276.704 271.292 277 270.073 277H266.848ZM265.477 277V264.52H266.971V277H265.477ZM266.426 270.76V270.074H270.126V270.76H266.426ZM266.848 270.364V269.723H269.15C269.895 269.723 270.472 269.553 270.882 269.213C271.298 268.873 271.506 268.393 271.506 267.771C271.506 267.168 271.295 266.705 270.873 266.383C270.451 266.061 269.856 265.899 269.089 265.899H266.883L266.672 264.52H269.115C270.357 264.52 271.318 264.792 271.998 265.337C272.678 265.882 273.018 266.655 273.018 267.657C273.018 268.519 272.713 269.187 272.104 269.661C271.494 270.13 270.63 270.364 269.511 270.364H266.848ZM280.717 277.176C279.135 277.176 277.922 276.763 277.078 275.937C276.234 275.104 275.812 273.9 275.812 272.324C275.812 270.801 276.214 269.617 277.017 268.773C277.825 267.93 278.977 267.508 280.471 267.508C281.361 267.508 282.123 267.678 282.756 268.018C283.395 268.352 283.849 268.826 284.118 269.441L282.923 270.32C282.642 269.834 282.281 269.474 281.842 269.239C281.402 269.005 280.922 268.888 280.4 268.888C279.434 268.888 278.684 269.178 278.15 269.758C277.617 270.338 277.351 271.164 277.351 272.236C277.351 273.396 277.652 274.281 278.256 274.891C278.859 275.494 279.729 275.796 280.866 275.796C281.317 275.796 281.766 275.772 282.211 275.726C282.656 275.679 283.093 275.617 283.521 275.541L283.696 276.895C283.216 277.006 282.721 277.079 282.211 277.114C281.701 277.155 281.203 277.176 280.717 277.176Z" fill="black"/>
<path d="M158.548 277.176C154.716 277.176 152.8 275.031 152.8 270.742C152.8 268.709 153.28 267.136 154.241 266.022C155.208 264.903 156.573 264.344 158.337 264.344C159.181 264.344 159.916 264.481 160.543 264.757C161.17 265.026 161.627 265.413 161.914 265.917L160.851 266.972C160.569 266.562 160.209 266.245 159.77 266.022C159.336 265.8 158.864 265.688 158.354 265.688C157.136 265.688 156.16 266.119 155.428 266.98C154.695 267.842 154.329 269.066 154.329 270.654C154.329 274.105 155.814 275.831 158.785 275.831C159.682 275.831 160.566 275.641 161.439 275.26L161.782 276.552C160.757 276.968 159.679 277.176 158.548 277.176ZM167.864 277.176C166.886 277.176 166.098 276.982 165.5 276.596C164.908 276.203 164.475 275.635 164.199 274.891C163.93 274.141 163.795 273.232 163.795 272.166V270.276C163.795 269.052 163.959 268.018 164.287 267.174C164.615 266.33 165.116 265.665 165.79 265.179C166.464 264.687 167.316 264.358 168.348 264.194L171.538 263.685L171.626 265.082L168.813 265.521C168.257 265.609 167.759 265.741 167.319 265.917C166.886 266.087 166.517 266.324 166.212 266.629C165.913 266.934 165.685 267.329 165.526 267.815C165.374 268.302 165.298 268.902 165.298 269.617V270.232H165.456C165.638 269.564 165.998 269.049 166.537 268.686C167.082 268.322 167.744 268.141 168.523 268.141C169.602 268.141 170.439 268.519 171.037 269.274C171.635 270.024 171.934 271.123 171.934 272.57C171.934 274.07 171.576 275.213 170.861 275.998C170.152 276.783 169.153 277.176 167.864 277.176ZM167.97 275.822C168.731 275.822 169.329 275.559 169.763 275.031C170.196 274.498 170.413 273.707 170.413 272.658C170.413 271.604 170.202 270.815 169.78 270.294C169.358 269.767 168.758 269.503 167.979 269.503C167.141 269.503 166.49 269.77 166.027 270.303C165.57 270.83 165.342 271.615 165.342 272.658C165.342 273.707 165.573 274.498 166.036 275.031C166.505 275.559 167.149 275.822 167.97 275.822Z" fill="black"/>
<path d="M47.752 277V264.52H49.2461V277H47.752ZM41.3008 277V264.52H42.7949V277H41.3008ZM41.6699 265.899V264.52H48.9209V265.899H41.6699ZM55.0645 277V267.684H56.5762V277H55.0645ZM51.4082 269.063V267.684H60.2324V269.063H51.4082Z" fill="black"/>
</svg>
